[Header]
FileType HTR
DataType HTRS
FileVersion 1
NumSegments 48
NumFrames 3
DataFrameRate 30
EulerRotationOrder ZYX
CalibrationUnits mm
RotationUnits Degrees
GlobalAxisofGravity Y
BoneLengthAxis Y
ScaleFactor 1.0
[SegmentNames&Hierarchy]
Wolf	GLOBAL
Becken	Wolf
Bauch	Becken
Bauch_001	Bauch
Brust	Bauch_001
Hals	Brust
Kopf_002	Hals
Kopf	Kopf_002
Unterkiefer	Kopf
Hals_fett	Unterkiefer
Maulunten	Unterkiefer
Mauloben	Kopf
MundW_L	Kopf
MundW_R	Kopf
Augen_con	Kopf
IK_Aug_R	Augen_con
IK_Aug_L	Augen_con
Aug_R	Kopf
aug_L	Kopf
Ohr_L	Kopf
Ohr_R	Kopf
Braun_O_L	Kopf
Braun_O_R	Kopf
aug_lied_O_L	Kopf
aug_lied_O_R	Kopf
aug_lied_U_L	Kopf
aug_lied_U_R	Kopf
Bauch_003	Brust
Schalterplatte_L	Bauch_003
Oberarm_L	Schalterplatte_L
Unterarm_L	Oberarm_L
Vorderpfote_L	Unterarm_L
Schalterplatte_R	Bauch_003
Oberarm_R	Schalterplatte_R
Unterarm_R	Oberarm_R
Vorderpfote_R	Unterarm_R
Schwanz	Becken
Schwanz_001	Schwanz
Schwanz_002	Schwanz_001
Schwanz_003	Schwanz_002
Oberschenkel_L	Becken
Unterschenkel_L	Oberschenkel_L
Pfote1_L	Unterschenkel_L
Pfote2_L	Pfote1_L
Oberschenkel_R	Becken
Unterschenkel_R	Oberschenkel_R
Pfote1_R	Unterschenkel_R
Pfote2_R	Pfote1_R
[BasePosition]
Wolf	0	0	0	0	0	0	1
Becken	0	0	0	0	0	0	1
Bauch	0	0	0	0	0	0	1
Bauch_001	0	0	0	0	0	0	1
Brust	0	0	0	0	0	0	1
Hals	0	0	0	0	0	0	1
Kopf_002	0	0	0	0	0	0	1
Kopf	0	0	0	0	0	0	1
Unterkiefer	0	0	0	0	0	0	1
Hals_fett	0	0	0	0	0	0	1
Maulunten	0	0	0	0	0	0	1
Mauloben	0	0	0	0	0	0	1
MundW_L	0	0	0	0	0	0	1
MundW_R	0	0	0	0	0	0	1
Augen_con	0	0	0	0	0	0	1
IK_Aug_R	0	0	0	0	0	0	1
IK_Aug_L	0	0	0	0	0	0	1
Aug_R	0	0	0	0	0	0	1
aug_L	0	0	0	0	0	0	1
Ohr_L	0	0	0	0	0	0	1
Ohr_R	0	0	0	0	0	0	1
Braun_O_L	0	0	0	0	0	0	1
Braun_O_R	0	0	0	0	0	0	1
aug_lied_O_L	0	0	0	0	0	0	1
aug_lied_O_R	0	0	0	0	0	0	1
aug_lied_U_L	0	0	0	0	0	0	1
aug_lied_U_R	0	0	0	0	0	0	1
Bauch_003	0	0	0	0	0	0	1
Schalterplatte_L	0	0	0	0	0	0	1
Oberarm_L	0	0	0	0	0	0	1
Unterarm_L	0	0	0	0	0	0	1
Vorderpfote_L	0	0	0	0	0	0	1
Schalterplatte_R	0	0	0	0	0	0	1
Oberarm_R	0	0	0	0	0	0	1
Unterarm_R	0	0	0	0	0	0	1
Vorderpfote_R	0	0	0	0	0	0	1
Schwanz	0	0	0	0	0	0	1
Schwanz_001	0	0	0	0	0	0	1
Schwanz_002	0	0	0	0	0	0	1
Schwanz_003	0	0	0	0	0	0	1
Oberschenkel_L	0	0	0	0	0	0	1
Unterschenkel_L	0	0	0	0	0	0	1
Pfote1_L	0	0	0	0	0	0	1
Pfote2_L	0	0	0	0	0	0	1
Oberschenkel_R	0	0	0	0	0	0	1
Unterschenkel_R	0	0	0	0	0	0	1
Pfote1_R	0	0	0	0	0	0	1
Pfote2_R	0	0	0	0	0	0	1
[Wolf]
22	0	0	0	-90	-0	0	1.0
23	0	0	0	-90	-0	0	1.0
24	0	0	0	-90	-0	0	1.0
[Becken]
22	0	0.3745135367	-0.3296537697	-2.067962885	164.4212189	89.26520538	1.0
23	0	0.3823800087	-0.3429818451	-2.067962885	164.4212189	89.26520538	1.0
24	0	0.3881639838	-0.3529778421	-2.067962885	164.4212189	89.26520538	1.0
[Bauch]
22	0.9984878302	-0.00741992658	-0.150611341	-6.458931239e-07	12.60522842	-8.201818247e-08	1.0
23	0.9984878302	-0.00741992658	-0.150611341	-6.458931239e-07	12.60522842	-8.201818247e-08	1.0
24	0.9984878302	-0.00741992658	-0.150611341	-6.458931239e-07	12.60522842	-8.201818247e-08	1.0
[Bauch_001]
22	1.071342349	0.006600080058	-0.1893585622	-1.568805601e-07	2.360082865	-2.503413654e-08	1.0
23	1.071342349	0.006600080058	-0.1893585622	-1.568805601e-07	2.360082865	-2.503413654e-08	1.0
24	1.071342349	0.006600080058	-0.1893585622	-1.568805601e-07	2.360082865	-2.503413654e-08	1.0
[Brust]
22	1.41907382	-0.01381989196	0.3623858392	3.618613846e-06	10.7627573	-4.096809789e-05	1.0
23	1.41907382	-0.01381989196	0.3623858392	3.618613846e-06	10.7627573	-4.096809789e-05	1.0
24	1.41907382	-0.01381989196	0.3623858392	3.618613846e-06	10.7627573	-4.096809789e-05	1.0
[Hals]
22	1.1844244	-0.01484991144	1.02827692	-4.51789947e-06	46.87745285	-2.16624926e-06	1.0
23	1.1844244	-0.01484991144	1.02827692	-4.51789947e-06	46.87745285	-2.16624926e-06	1.0
24	1.1844244	-0.01484991144	1.02827692	-4.51789947e-06	46.87745285	-2.16624926e-06	1.0
[Kopf_002]
22	1.75259161	3.012944944e-05	0.2651725411	0.006653842982	-165.1497192	0.002556535648	1.0
23	1.75259161	3.012944944e-05	0.2651725411	0.006653842982	-165.1497192	0.002556535648	1.0
24	1.75259161	3.012944944e-05	0.2651725411	0.006653842982	-165.1497192	0.002556535648	1.0
[Kopf]
22	1.015781879	8.032657206e-08	9.111317922e-08	0.06872025877	123.2280426	-0.02605217695	1.0
23	1.015781879	8.032657206e-08	9.111317922e-08	0.06872025877	123.2280426	-0.02605217695	1.0
24	1.015781879	8.032657206e-08	9.111317922e-08	0.06872025877	123.2280426	-0.02605217695	1.0
[Unterkiefer]
22	0.6370437145	0.004552738741	0.4060620368	5.412721157	-68.3888092	-3.09354353	1.0
23	0.6370437145	0.004552738741	0.4060620368	5.412721157	-68.3888092	-3.09354353	1.0
24	0.6370437145	0.004552738741	0.4060620368	5.412721157	-68.3888092	-3.09354353	1.0
[Hals_fett]
22	0.2998299599	0.007747137919	0.1206380203	-5.071650982	-59.35961533	5.585566998	1.0
23	0.2998299599	0.007747137919	0.1206380203	-5.071650982	-59.35961533	5.585566998	1.0
24	0.2998299599	0.007747137919	0.1206380203	-5.071650982	-59.35961533	5.585566998	1.0
[Maulunten]
22	0.08317943662	-0.007747350261	-0.1206459776	-3.32220912	38.97271347	-0.871876061	1.0
23	0.08317943662	-0.007747350261	-0.1206459776	-3.32220912	38.97271347	-0.871876061	1.0
24	0.08317943662	-0.007747350261	-0.1206459776	-3.32220912	38.97271347	-0.871876061	1.0
[Mauloben]
22	0.910148263	0.0004056794569	0.4003701806	-0.1032674983	-28.77768707	0.03543139994	1.0
23	0.910148263	0.0004056794569	0.4003701806	-0.1032674983	-28.77768707	0.03543139994	1.0
24	0.910148263	0.0004056794569	0.4003701806	-0.1032674983	-28.77768707	0.03543139994	1.0
[MundW_L]
22	0.673060894	-0.3618556261	0.3751286268	-179.8370972	-17.94884872	24.71397209	1.0
23	0.673060894	-0.3618556261	0.3751286268	-179.8370972	-17.94884872	24.71397209	1.0
24	0.673060894	-0.3618556261	0.3751286268	-179.8370972	-17.94884872	24.71397209	1.0
[MundW_R]
22	0.6732318401	0.3627035022	0.37398085	179.6653442	-18.02427101	-24.69083977	1.0
23	0.6732318401	0.3627035022	0.37398085	179.6653442	-18.02427101	-24.69083977	1.0
24	0.6732318401	0.3627035022	0.37398085	179.6653442	-18.02427101	-24.69083977	1.0
[Augen_con]
22	1.807372689	-0.0001604028512	0.1835819334	0.09822253883	157.1545258	0.02385936864	1.0
23	1.807372689	-0.0001604028512	0.1835819334	0.09822253883	157.1545258	0.02385936864	1.0
24	1.807372689	-0.0001604028512	0.1835819334	0.09822253883	157.1545258	0.02385936864	1.0
[IK_Aug_R]
22	0.3461304307	0.2943200469	-8.032657206e-08	-0.4194762409	-4.963055134	165.6946411	1.0
23	0.3461304307	0.2943200469	-8.032657206e-08	-0.4194762409	-4.963055134	165.6946411	1.0
24	0.3461304307	0.2943200469	-8.032657206e-08	-0.4194762409	-4.963055134	165.6946411	1.0
[IK_Aug_L]
22	0.3461307883	-0.2943199575	-1.629814861e-08	0.4194769561	-4.963055134	-165.6946411	1.0
23	0.3461307883	-0.2943199575	-1.629814861e-08	0.4194769561	-4.963055134	-165.6946411	1.0
24	0.3461307883	-0.2943199575	-1.629814861e-08	0.4194769561	-4.963055134	-165.6946411	1.0
[Aug_R]
22	1.0351547	0.2207805812	-0.09605748951	176.004776	-17.29163933	12.85548019	1.0
23	1.0351547	0.2207805812	-0.09605748951	176.004776	-17.29163933	12.85548019	1.0
24	1.0351547	0.2207805812	-0.09605748951	176.004776	-17.29163933	12.85548019	1.0
[aug_L]
22	1.035044074	-0.2215988934	-0.09535883367	-176.1891022	-17.33178139	-12.83103275	1.0
23	1.035044074	-0.2215988934	-0.09535883367	-176.1891022	-17.33178139	-12.83103275	1.0
24	1.035044074	-0.2215988934	-0.09535883367	-176.1891022	-17.33178139	-12.83103275	1.0
[Ohr_L]
22	0.6407760978	-0.3659991622	-0.6893320084	-24.34924507	53.07766342	-15.02013397	1.0
23	0.6407760978	-0.3659991622	-0.6893320084	-24.34924507	53.07766342	-15.02013397	1.0
24	0.6407760978	-0.3659991622	-0.6893320084	-24.34924507	53.07766342	-15.02013397	1.0
[Ohr_R]
22	0.6409583092	0.3634999394	-0.6904845238	24.05786133	53.12416077	14.75857162	1.0
23	0.6409583092	0.3634999394	-0.6904845238	24.05786133	53.12416077	14.75857162	1.0
24	0.6409583092	0.3634999394	-0.6904845238	24.05786133	53.12416077	14.75857162	1.0
[Braun_O_L]
22	0.9801794291	-0.3706048727	-0.3292538524	-143.3172302	-34.69635391	52.39493942	1.0
23	0.9801794291	-0.3706048727	-0.3292538524	-143.3172302	-34.69635391	52.39493942	1.0
24	0.9801794291	-0.3706048727	-0.3292538524	-143.3172302	-34.69635391	52.39493942	1.0
[Braun_O_R]
22	0.9803634882	0.3690741956	-0.3304223716	143.1826782	-34.83971786	-52.3467598	1.0
23	0.9803634882	0.3690741956	-0.3304223716	143.1826782	-34.83971786	-52.3467598	1.0
24	0.9803634882	0.3690741956	-0.3304223716	143.1826782	-34.83971786	-52.3467598	1.0
[aug_lied_O_L]
22	1.038881421	-0.3271433711	-0.1608108282	-175.8613434	-20.15596199	60.31666946	1.0
23	1.038881421	-0.3271433711	-0.1608108282	-175.8613434	-20.15596199	60.31666946	1.0
24	1.038881421	-0.3271433711	-0.1608108282	-175.8613434	-20.15596199	60.31666946	1.0
[aug_lied_O_R]
22	1.039044261	0.3261157274	-0.1618429124	175.7657928	-20.31323814	-60.31218338	1.0
23	1.039044261	0.3261157274	-0.1618429124	175.7657928	-20.31323814	-60.31218338	1.0
24	1.039044261	0.3261157274	-0.1618429124	175.7657928	-20.31323814	-60.31218338	1.0
[aug_lied_U_L]
22	1.021915555	-0.3312865496	-0.1338484734	-159.8099365	-28.7482872	60.17461395	1.0
23	1.021915555	-0.3312865496	-0.1338484734	-159.8099365	-28.7482872	60.17461395	1.0
24	1.021915555	-0.3312865496	-0.1338484734	-159.8099365	-28.7482872	60.17461395	1.0
[aug_lied_U_R]
22	1.02207756	0.3303526342	-0.1348843277	159.7071381	-28.90532684	-60.15359116	1.0
23	1.02207756	0.3303526342	-0.1348843277	159.7071381	-28.90532684	-60.15359116	1.0
24	1.02207756	0.3303526342	-0.1348843277	159.7071381	-28.90532684	-60.15359116	1.0
[Bauch_003]
22	1.444672227	0.03385011479	-1.56629622	-3.870021374e-06	-137.6799469	1.039222207e-05	1.0
23	1.444672227	0.03385011479	-1.56629622	-3.870021374e-06	-137.6799469	1.039222207e-05	1.0
24	1.444672227	0.03385011479	-1.56629622	-3.870021374e-06	-137.6799469	1.039222207e-05	1.0
[Schalterplatte_L]
22	1.070404887	-0.4015559256	0.152588129	-13.81561852	71.16590881	-43.20150757	1.0
23	1.093399644	-0.4042919278	0.1668432355	-13.83267117	71.1388092	-43.25940704	1.0
24	1.110701442	-0.4060819447	0.177359432	-13.88502979	71.13193512	-43.34308243	1.0
[Oberarm_L]
22	1.418636918	9.313225746e-08	1.303851604e-07	-93.07606506	-65.56000519	110.1969757	1.0
23	1.418636918	9.313225746e-08	1.303851604e-07	-94.51771545	-65.48187256	111.8857727	1.0
24	1.418636918	9.313225746e-08	1.303851604e-07	-95.59010315	-65.41259766	113.1450958	1.0
[Unterarm_L]
22	2.028227806	1.885928214e-07	1.862644972e-08	6.805878162	59.28520203	7.196382523	1.0
23	2.028227806	1.885928214e-07	1.862644972e-08	7.091330051	59.64165497	7.500916004	1.0
24	2.028227806	1.885928214e-07	1.862644972e-08	7.317081451	59.92681885	7.741194725	1.0
[Vorderpfote_L]
22	1.705947399	2.607703209e-07	2.305023372e-07	-2.813594818	96.02894592	-1.891979933	1.0
23	1.705947399	2.607703209e-07	2.305023372e-07	-2.98443675	96.33913422	-2.063486338	1.0
24	1.705947399	2.607703209e-07	2.305023372e-07	-3.105213404	96.57884979	-2.184783697	1.0
[Schalterplatte_R]
22	0.970833838	0.3824335933	-0.1025982797	116.0483475	74.77407074	149.5798798	1.0
23	0.9788804054	0.3824751973	-0.1105488837	105.493103	77.40726471	138.0839386	1.0
24	0.9846954942	0.3825168014	-0.1163259894	95.22509766	79.1113739	126.8340759	1.0
[Oberarm_R]
22	1.418636441	2.235174179e-07	1.490116119e-07	100.7582092	-59.49799728	-121.0155106	1.0
23	1.418636441	2.235174179e-07	1.490116119e-07	91.40576172	-60.87878418	-109.5984421	1.0
24	1.418636441	2.235174179e-07	1.490116119e-07	82.45020294	-61.30636978	-98.83728027	1.0
[Unterarm_R]
22	2.028232098	1.350417733e-07	-7.450580597e-08	-48.66212463	84.92388916	-49.33917999	1.0
23	2.028232098	1.350417733e-07	-7.450580597e-08	-29.35583115	82.42852783	-30.00657463	1.0
24	2.028232098	1.350417733e-07	-7.450580597e-08	-15.67514896	78.87549591	-16.22935677	1.0
[Vorderpfote_R]
22	1.705937624	9.313230187e-09	7.101335342e-08	-3.398845673	10.83850574	4.665276527	1.0
23	1.705937624	9.313230187e-09	7.101335342e-08	-1.697115302	29.0851326	2.466522217	1.0
24	1.705937624	9.313230187e-09	7.101335342e-08	-0.4998770952	45.90602875	0.8324894309	1.0
[Schwanz]
22	-0.153259173	-1.338776023e-08	0.0951410532	0.1661622673	-124.9541016	-0.5186145902	1.0
23	-0.1613513529	-1.338776023e-08	0.09908013046	0.1810357869	-125.4277573	-0.5765262842	1.0
24	-0.1672987789	-1.338776023e-08	0.1024135798	0.191616118	-125.7828674	-0.6194380522	1.0
[Schwanz_001]
22	0.9104326963	6.926712359e-08	1.564329999e-09	-0.556553781	-11.84284592	0.4955679774	1.0
23	0.9104326963	6.926712359e-08	1.564329999e-09	-0.5424799323	-12.38999367	0.4788531363	1.0
24	0.9104326963	6.926712359e-08	1.564329999e-09	-0.5318186879	-12.80018711	0.4662236273	1.0
[Schwanz_002]
22	0.7855662704	6.053597446e-08	1.369335223e-07	-0.08932867646	-12.4527235	0.06824500859	1.0
23	0.7855662704	6.053597446e-08	1.369335223e-07	-0.05221223831	-12.14492798	0.03983391076	1.0
24	0.7855662704	6.053597446e-08	1.369335223e-07	-0.02449770458	-11.91414642	0.01866779663	1.0
[Schwanz_003]
22	0.8350353241	6.286426668e-08	8.163624443e-08	-0.4776066542	-18.94390869	0.5697183013	1.0
23	0.8350353241	6.286426668e-08	8.163624443e-08	-0.6320341825	-22.651577	0.7239710689	1.0
24	0.8350353241	6.286426668e-08	8.163624443e-08	-0.7557234764	-25.41495132	0.8475344181	1.0
[Oberschenkel_L]
22	0.5767508745	-0.5837000012	0.05539156124	10.1089344	-23.51420212	-2.600302458	1.0
23	0.5621551275	-0.5837000012	0.07792831212	10.09552097	-23.2006073	-2.566605091	1.0
24	0.5514572263	-0.5837000012	0.09572942555	10.0889616	-23.04487419	-2.549942255	1.0
[Unterschenkel_L]
22	1.686439037	1.200286732e-07	2.005924316e-09	-147.0269928	-64.59091187	155.7369232	1.0
23	1.686439037	1.196048061e-07	2.101444574e-09	-145.1552582	-66.18440247	153.4442596	1.0
24	1.686439037	1.191809318e-07	2.196964832e-09	-143.5445709	-67.37553406	151.5355377	1.0
[Pfote1_L]
22	1.190900326	1.42420717e-07	-1.352208727e-07	-0.05816949159	55.68288803	-9.183115959	1.0
23	1.190900326	1.429938408e-07	-1.337880775e-07	-0.170269832	56.29922104	-9.318370819	1.0
24	1.190900326	1.435669503e-07	-1.323552681e-07	-0.255700618	56.75491333	-9.420881271	1.0
[Pfote2_L]
22	0.9876255989	1.351850472e-07	-7.76579796e-08	76.95478058	98.81694794	71.8949585	1.0
23	0.9876255989	1.334179274e-07	-7.603412655e-08	85.02703094	98.27436829	80.25778198	1.0
24	0.9876255989	1.316508076e-07	-7.441028771e-08	91.44718933	97.97848511	86.8814621	1.0
[Oberschenkel_R]
22	0.456587404	0.5837000608	0.1349397302	-20.37447929	-70.79233551	15.40207577	1.0
23	0.4516928792	0.5837000608	0.1352429241	-21.42555046	-71.99233246	16.510952	1.0
24	0.4485396743	0.5837000608	0.1348649859	-22.29321289	-72.88455963	17.42167091	1.0
[Unterschenkel_R]
22	1.686449051	1.11758709e-07	3.725289943e-08	-112.1287079	-105.8636475	99.12224579	1.0
23	1.686449051	1.11758709e-07	3.725289943e-08	-115.3427124	-106.265625	102.5230255	1.0
24	1.686449051	1.11758709e-07	3.725289943e-08	-117.8303528	-106.6069794	105.1530838	1.0
[Pfote1_R]
22	1.190900326	2.176966518e-07	1.11758709e-07	-2.442221403	37.74702072	5.611612797	1.0
23	1.190900326	2.176966518e-07	1.11758709e-07	-2.30618763	35.09965897	5.839612961	1.0
24	1.190900326	2.176966518e-07	1.11758709e-07	-2.217932224	33.19546127	5.995211124	1.0
[Pfote2_R]
22	0.9876256585	1.024454832e-07	-4.656610209e-09	-27.72721672	100.6411591	-18.28872871	1.0
23	0.9876256585	1.024454832e-07	-4.656610209e-09	-30.8584938	99.45722198	-21.72467232	1.0
24	0.9876256585	1.024454832e-07	-4.656610209e-09	-33.96331406	98.48709106	-25.05540466	1.0
[EndOfFile]
